<?xml version="1.0" encoding="UTF-8"?>
<!DOCTYPE svg PUBLIC "-//W3C//DTD SVG 1.1//EN" "http://www.w3.org/Graphics/SVG/1.1/DTD/svg11.dtd">
<svg xmlns="http://www.w3.org/2000/svg" xmlns:xlink="http://www.w3.org/1999/xlink" version="1.1" width="43px" height="43px" viewBox="-0.5 -0.5 43 43"><defs><linearGradient x1="0%" y1="0%" x2="0%" y2="100%" id="mx-gradient-fff2cc-1-ffd966-1-s-0"><stop offset="0%" style="stop-color: rgb(255, 242, 204); stop-opacity: 1;"/><stop offset="100%" style="stop-color: rgb(255, 217, 102); stop-opacity: 1;"/></linearGradient></defs><g><rect x="1" y="1" width="40" height="40" fill="#04112a" stroke="rgb(0, 0, 0)" pointer-events="all"/><rect x="1" y="1" width="40" height="40" fill="none" stroke="none" pointer-events="all"/><path d="M 30.94 7.05 L 41 9.06 C 39.48 4.66 35.56 1.52 30.94 1 L 30.94 37.27 C 30.62 39.41 27.84 41 24.63 40.89 C 21.42 40.79 18.9 39.02 18.9 36.87 C 18.9 34.72 21.42 32.95 24.63 32.84 C 27.84 32.74 30.62 34.33 30.94 36.47 Z" fill="url(#mx-gradient-fff2cc-1-ffd966-1-s-0)" stroke="#d6b656" stroke-width="2" stroke-miterlimit="10" pointer-events="all"/><path d="M 1 8.9 L 21.12 8.9 M 1 18.97 L 21.12 18.97 M 1 29.05 L 21.12 29.05" fill="none" stroke="#d6b656" stroke-width="2" stroke-miterlimit="10" pointer-events="all"/></g></svg>