<?xml version="1.0" encoding="UTF-8"?>
<!DOCTYPE svg PUBLIC "-//W3C//DTD SVG 1.1//EN" "http://www.w3.org/Graphics/SVG/1.1/DTD/svg11.dtd">
<svg xmlns="http://www.w3.org/2000/svg" xmlns:xlink="http://www.w3.org/1999/xlink" version="1.1" width="32px" height="32px" viewBox="-0.5 -0.5 32 32" style="background-color: rgb(255, 255, 255);"><defs/><g><ellipse cx="16" cy="16" rx="15" ry="15" fill="#dae8fc" stroke="#6c8ebf" stroke-width="2" pointer-events="all"/><path d="M 4 25 C 4.82 22.98 8.28 21.5 12.4 21.4 C 12.66 21.44 12.93 21.37 13.14 21.2 C 13.34 21.02 13.45 20.77 13.45 20.5 C 13.66 18.59 12.93 16.69 11.5 15.4 C 11.14 15.4 10.84 14.66 10.84 13.75 C 10.84 12.84 11.14 12.1 11.5 12.1 C 11.33 10.78 11.72 9.44 12.57 8.42 C 13.43 7.4 14.67 6.77 16 6.7 C 17.33 6.77 18.57 7.4 19.43 8.42 C 20.28 9.44 20.67 10.78 20.5 12.1 C 20.86 12.1 21.16 12.84 21.16 13.75 C 21.16 14.66 20.86 15.4 20.5 15.4 C 19.07 16.69 18.34 18.59 18.55 20.5 C 18.55 20.77 18.66 21.02 18.86 21.2 C 19.07 21.37 19.34 21.44 19.6 21.4 C 23.72 21.5 27.18 22.98 28 25" fill="none" stroke="#6c8ebf" stroke-width="2" stroke-miterlimit="10" pointer-events="all"/></g></svg>