<?xml version="1.0" encoding="UTF-8"?>
<!DOCTYPE svg PUBLIC "-//W3C//DTD SVG 1.1//EN" "http://www.w3.org/Graphics/SVG/1.1/DTD/svg11.dtd">
<svg xmlns="http://www.w3.org/2000/svg" xmlns:xlink="http://www.w3.org/1999/xlink" version="1.1" width="45px" height="45px" viewBox="-0.5 -0.5 45 45"><defs/><g><rect x="0" y="0" width="43" height="43" fill="#001229" stroke="none" pointer-events="all"/><path d="M 10.06 11.51 L 10.06 6.78 L 12.76 6.78 L 12.76 11.51 Z M 14.63 11.51 L 14.63 6.78 L 33.53 6.78 L 33.53 11.51 Z M 10.06 19.55 L 10.06 14.83 L 12.76 14.83 L 12.76 19.55 Z M 14.63 19.55 L 14.63 14.83 L 33.53 14.83 L 33.53 19.55 Z M 10.06 27.59 L 10.06 22.86 L 12.76 22.86 L 12.76 27.59 Z M 14.63 27.59 L 14.63 22.86 L 33.53 22.86 L 33.53 27.59 Z M 5.09 42 L 5.09 1 L 38.3 1 L 38.3 42 Z M 8.09 38.28 L 35.43 38.28 L 35.43 4.26 L 8.09 4.26 Z M 10.06 35.63 L 10.06 30.91 L 12.76 30.91 L 12.76 35.63 Z M 14.63 35.63 L 14.63 30.91 L 33.53 30.91 L 33.53 35.63 Z" fill="#deb462" stroke="none" pointer-events="all"/></g></svg>